<svg width="296" height="41" viewBox="0 0 296 41" fill="none" xmlns="http://www.w3.org/2000/svg">
<path d="M10.3041 11.0694C10.3041 12.9065 11.5108 13.9429 18.663 15.2278C32.9213 17.7889 35.7876 22.0859 35.7876 28.185C35.7876 31.9166 33.9918 40.5943 17.3663 40.5943C11.0976 40.5943 1.99573 38.9595 0.156083 28.0178L0.0680965 27.4941H10.1899L10.2932 27.8022C11.4756 31.3644 12.7571 32.9529 18.2345 32.9529C24.6812 32.9529 25.4263 30.7703 25.4263 29.1289C25.4263 26.8495 23.9712 25.4457 16.0101 24.0926C1.93858 21.6856 0 16.8406 0 11.9649C0 4.69747 6.59172 0 16.7882 0C31.9916 0 34.038 8.8603 34.3039 11.5755L34.3522 12.0683H24.2548L24.1624 11.7427C23.5866 9.71847 22.2238 7.64801 16.498 7.64801C13.6715 7.64801 10.3041 8.24211 10.3041 11.0694Z" fill="#D1EDFF"/>
<path fill-rule="evenodd" clip-rule="evenodd" d="M111.174 40.3105H122.623L107.681 0.473077H94.355L79.3494 40.3105H90.5394L93.5791 31.3159H108.198L111.174 40.3105ZM100.89 8.13647L106.13 24.2532H95.6497L100.89 8.13647Z" fill="#D1EDFF"/>
<path d="M138.728 32.2818H160.139V40.3105H127.602V0.473077H138.728V32.2818Z" fill="#D1EDFF"/>
<path d="M165.337 0.473077V40.3105H198.526V32.2818H176.463V24.1322H197.157V16.5876H176.463V8.49956H198.586V0.473077H165.337Z" fill="#D1EDFF"/>
<path fill-rule="evenodd" clip-rule="evenodd" d="M242.747 40.3105L231.626 24.2246C233.314 23.6987 234.78 22.9638 236.022 22.02C238.824 19.8879 240.226 16.79 240.226 12.724C240.226 9.02316 238.813 6.05506 235.989 3.81957C233.164 1.58634 229.208 0.468643 224.119 0.468643H203.744V40.3105H214.675V25.7626H221.341L230.458 40.3105H242.747ZM214.673 8.31906H222.563C224.72 8.31906 226.337 8.72171 227.414 9.52701C228.491 10.3323 229.032 11.5996 229.032 13.329C229.032 15.0584 228.491 16.3874 227.414 17.1927C226.335 17.9979 224.717 18.4005 222.563 18.4005H214.673V8.31906Z" fill="#D1EDFF"/>
<path d="M48.6655 20.4753C48.6655 27.1355 53.2791 31.7076 59.3104 31.7076C63.7437 31.7076 67.1615 28.7328 68.5815 24.1146H78.1163C76.4744 35.7032 68.9441 40.3633 59.3104 40.3633C47.1137 40.3633 38.7307 32.2818 38.7307 20.4732C38.7307 8.6645 47.1137 0.583065 59.3104 0.583065C66.7462 0.583065 74.283 3.42796 77.1668 11.8373L68.221 14.8714C66.6362 10.9946 63.4118 9.24322 59.3104 9.24322C53.2791 9.24322 48.6655 13.8153 48.6655 20.4753Z" fill="#D1EDFF"/>
<path d="M296 0.393233V0.27002H272.778L270.222 2.82889C269.903 3.14793 269.584 3.46476 269.266 3.78379C266.439 6.6177 263.619 9.4604 260.788 12.2899C259.366 13.7113 257.922 15.115 256.489 16.5276C256.484 16.532 256.48 16.5364 256.476 16.5408L255.924 17.0754V40.3253H278.932C279.181 40.1075 279.442 39.9006 279.675 39.6674C282.638 36.7081 285.597 33.74 288.562 30.7829C289.812 29.5353 291.083 28.312 292.338 27.0689C293.327 26.0898 294.307 25.1063 295.285 24.1162C295.536 23.8631 295.76 23.5859 295.995 23.3197V9.19417C295.995 6.30086 295.995 3.40975 295.995 0.516446C295.995 0.474641 295.995 0.430637 295.995 0.393233H296ZM272.229 32.7697C272.229 33.2185 272.22 33.2251 271.78 33.2251C269.369 33.2251 266.958 33.2251 264.549 33.2251C264.14 33.2251 263.731 33.2493 263.325 33.2559C262.995 33.2625 262.85 33.1151 262.852 32.7653C262.861 30.0018 262.861 27.2383 262.852 24.4748C262.852 24.1536 262.96 23.9885 263.292 23.9929C263.397 23.9929 263.503 23.9819 263.606 23.9819C266.285 23.9819 268.965 23.9819 271.646 23.9819C272.209 23.9819 272.231 24.0061 272.231 24.5804C272.231 25.927 272.231 27.2735 272.231 28.62C272.231 30.0018 272.231 31.3835 272.231 32.7653L272.229 32.7697ZM286.981 11.346H286.975C286.975 17.4054 286.975 23.4649 286.981 29.5221L279.075 37.4364V36.5497V17.104H258.843L266.509 9.4296C266.595 9.40979 266.687 9.39879 266.786 9.39879C272.33 9.40319 277.871 9.40539 283.414 9.39879V9.39439H286.979V11.3438L286.981 11.346Z" fill="#D1EDFF"/>
</svg>
