<svg width="1085" height="173" viewBox="0 0 1085 173" fill="none" xmlns="http://www.w3.org/2000/svg">
<path d="M229.008 77.7499V74.9299C229.008 50.4099 244.608 33.1699 268.188 33.1699C287.658 33.1699 300.798 45.0199 303.148 61.9099H289.308C287.198 51.2399 279.458 44.8999 268.078 44.8999C252.238 44.8999 243.088 57.2199 243.088 74.9299V77.7499C243.088 95.5799 252.588 107.78 268.188 107.78C283.788 107.78 291.298 97.2199 291.418 85.9599V84.2H266.788V73.0599H303.388V117.99H292.708L291.418 106.49C287.308 114.11 277.808 119.51 266.788 119.51C244.148 119.51 229.018 102.38 229.018 77.7499H229.008Z" fill="#101820"/>
<path d="M312.57 88.6699V86.9099C312.57 68.4899 324.3 56.1699 342.37 56.1699C360.44 56.1699 372.28 68.4899 372.28 86.9099V88.6699C372.28 107.09 360.55 119.52 342.37 119.52C324.19 119.52 312.57 107.08 312.57 88.6699ZM359.14 88.6699V86.9099C359.14 73.8899 353.39 66.6199 342.36 66.6199C331.33 66.6199 325.7 73.8899 325.7 86.9099V88.6699C325.7 101.69 331.45 109.08 342.36 109.08C353.27 109.08 359.14 101.69 359.14 88.6699Z" fill="#101820"/>
<path d="M381.229 117.99V57.5704H393.659L394.009 69.3004C397.289 61.5604 403.629 56.4004 412.309 56.4004C413.249 56.4004 414.539 56.5204 415.589 56.7504V69.3004C414.419 69.1804 413.009 69.0704 411.599 69.0704C400.689 69.0704 394.119 75.2904 394.119 87.2504V117.99H381.219H381.229Z" fill="#101820"/>
<path d="M434.83 95.6997V117.99H421.93V31.1797H434.83V81.7397L458.53 57.5697H474.13L450.08 81.7397L474.95 117.99H460.17L440.81 89.7197L434.83 95.6997Z" fill="#101820"/>
<path d="M480.641 117.99V31.1797H493.661V66.8397C496.951 60.8597 503.161 56.1697 512.781 56.1697C527.441 56.1697 533.661 65.3197 533.661 79.0497V118H520.871V82.2197C520.871 72.3697 517.231 66.8497 508.441 66.8497C499.651 66.8497 493.541 73.4197 493.541 84.2097V118H480.641V117.99Z" fill="#101820"/>
<path d="M541.658 101.69C541.658 92.0699 547.518 85.7299 557.848 84.3299L581.658 80.8099V76.4699C581.658 69.7799 577.078 66.2599 569.458 66.2599C561.838 66.2599 556.908 69.6599 556.318 75.7599H543.998C545.058 63.3299 554.908 56.1699 569.688 56.1699C585.288 56.1699 594.088 64.3799 594.088 76.9299V117.99H582.238L581.768 108.61C578.018 115.41 570.628 119.52 561.938 119.52C549.498 119.52 541.648 112.01 541.648 101.69H541.658ZM581.668 95.8199V90.3099L562.308 93.0099C556.798 93.8299 554.218 96.4099 554.218 101.1C554.218 106.14 558.088 109.31 564.898 109.31C573.928 109.31 581.678 103.68 581.678 95.8199H581.668Z" fill="#101820"/>
<path d="M652.864 117.989L623.414 34.6992H637.964L660.604 102.619L683.014 34.6992H697.094L667.764 117.989H652.864Z" fill="#101820"/>
<path d="M694.102 88.6699V86.9099C694.102 68.6099 705.482 56.1699 724.012 56.1699C743.842 56.1699 753.462 70.0099 752.522 90.6599H707.352C707.942 102.74 713.802 109.2 724.012 109.2C732.462 109.2 737.502 105.21 739.262 99.1099H752.162C749.232 111.78 739.142 119.52 724.012 119.52C705.242 119.52 694.102 106.97 694.102 88.6699ZM739.262 81.3899C738.322 72.0099 733.392 66.3699 723.892 66.3699C714.392 66.3699 708.992 71.5299 707.582 81.3899H739.252H739.262Z" fill="#101820"/>
<path d="M761.299 117.99V57.5702H773.729L774.199 67.1902C777.369 61.2102 783.699 56.1602 793.439 56.1602C808.099 56.1602 814.319 65.3102 814.319 79.0402V117.99H801.529V82.2101C801.529 72.3601 797.889 66.8401 789.089 66.8401C780.289 66.8401 774.189 73.4102 774.189 84.2002V117.99H761.289H761.299Z" fill="#101820"/>
<path d="M831.144 101.689V67.3195H819.414V57.5794H831.144V38.6895H844.044V57.5794H860.464V67.3195H844.044V100.279C844.044 106.259 846.274 108.959 853.424 108.959C856.004 108.959 859.054 108.369 860.814 107.789V118.109C858.114 118.929 854.014 119.519 850.964 119.519C837.704 119.519 831.134 113.419 831.134 101.689H831.144Z" fill="#101820"/>
<path d="M867.377 96.4101V57.5801H880.397V93.9501C880.397 103.22 883.797 108.73 892.477 108.73C901.157 108.73 906.667 101.93 906.667 91.1301V57.5801H919.687V118H907.137L906.897 108.85C903.377 114.72 896.927 119.53 888.247 119.53C874.167 119.53 867.367 110.61 867.367 96.4201L867.377 96.4101Z" fill="#101820"/>
<path d="M931.156 117.99V57.5704H943.586L943.936 69.3004C947.226 61.5604 953.556 56.4004 962.236 56.4004C963.176 56.4004 964.466 56.5204 965.526 56.7504V69.3004C964.356 69.1804 962.946 69.0704 961.536 69.0704C950.626 69.0704 944.056 75.2904 944.056 87.2504V117.99H931.156Z" fill="#101820"/>
<path d="M968.984 88.6699V86.9099C968.984 68.6099 980.364 56.1699 998.894 56.1699C1018.72 56.1699 1028.34 70.0099 1027.4 90.6599H982.244C982.834 102.74 988.694 109.2 998.904 109.2C1007.35 109.2 1012.39 105.21 1014.15 99.1099H1027.05C1024.12 111.78 1014.03 119.52 998.904 119.52C980.134 119.52 968.994 106.97 968.994 88.6699H968.984ZM1014.15 81.3899C1013.21 72.0099 1008.28 66.3699 998.784 66.3699C989.284 66.3699 983.884 71.5299 982.474 81.3899H1014.14H1014.15Z" fill="#101820"/>
<path d="M1033.13 99.2202H1045.56C1046.62 106.38 1051.78 109.78 1059.75 109.78C1067.02 109.78 1071.95 106.85 1071.95 101.45C1071.95 96.6402 1068.55 94.2902 1057.05 92.1802C1042.39 89.7202 1035.23 85.0202 1035.23 74.2302C1035.23 63.4402 1044.97 56.1602 1058.81 56.1602C1073.36 56.1602 1082.39 63.0802 1083.56 75.0502H1071.24C1070.3 68.9502 1065.61 65.6702 1058.69 65.6702C1051.77 65.6702 1047.66 68.6002 1047.66 73.5302C1047.66 78.4602 1051.06 80.4501 1062.09 82.2101C1077.34 84.6701 1084.73 89.7202 1084.73 100.28C1084.73 111.78 1074.76 119.52 1059.63 119.52C1044.5 119.52 1034.29 112.13 1033.12 99.2302L1033.13 99.2202Z" fill="#101820"/>
<path d="M184.69 135.54L101.78 88.25C96.3 84.53 89.09 84.59 83.67 88.38L31.94 124.56V31.94H157.87V0H15.97C7.15 0 0 7.15 0 15.97V155.22C0 161.17 3.31 166.63 8.59 169.38C13.87 172.13 20.24 171.72 25.12 168.3L92.96 120.86L184.69 172.19V135.54Z" fill="#85EBF9"/>
</svg>
