<svg width="1085" height="173" viewBox="0 0 1085 173" fill="none" xmlns="http://www.w3.org/2000/svg">
<path d="M229.008 77.7597V74.9397C229.008 50.4197 244.608 33.1797 268.188 33.1797C287.658 33.1797 300.798 45.0297 303.148 61.9197H289.308C287.198 51.2497 279.458 44.9097 268.078 44.9097C252.238 44.9097 243.088 57.2297 243.088 74.9397V77.7597C243.088 95.5897 252.588 107.79 268.188 107.79C283.788 107.79 291.298 97.2297 291.418 85.9697V84.2097H266.788V73.0697H303.388V118H292.708L291.418 106.5C287.308 114.12 277.808 119.52 266.788 119.52C244.148 119.52 229.018 102.39 229.018 77.7597H229.008Z" fill="#E2E6E5"/>
<path d="M312.57 88.6697V86.9097C312.57 68.4897 324.3 56.1797 342.37 56.1797C360.44 56.1797 372.28 68.4997 372.28 86.9097V88.6697C372.28 107.09 360.55 119.52 342.37 119.52C324.19 119.52 312.57 107.08 312.57 88.6697ZM359.14 88.6697V86.9097C359.14 73.8897 353.39 66.6197 342.36 66.6197C331.33 66.6197 325.7 73.8897 325.7 86.9097V88.6697C325.7 101.69 331.45 109.08 342.36 109.08C353.27 109.08 359.14 101.69 359.14 88.6697Z" fill="#E2E6E5"/>
<path d="M381.229 118V57.5899H393.659L394.009 69.3199C397.289 61.5799 403.629 56.4199 412.309 56.4199C413.249 56.4199 414.539 56.5399 415.589 56.7699V69.3199C414.419 69.1999 413.009 69.0899 411.599 69.0899C400.689 69.0899 394.119 75.3099 394.119 87.2699V118.01H381.219L381.229 118Z" fill="#E2E6E5"/>
<path d="M434.814 95.7094V117.999H421.914V31.1895H434.814V81.7495L458.514 57.5794H474.114L450.064 81.7495L474.934 117.999H460.154L440.794 89.7295L434.814 95.7094Z" fill="#E2E6E5"/>
<path d="M480.641 117.999V31.1895H493.661V66.8495C496.951 60.8695 503.161 56.1695 512.781 56.1695C527.441 56.1695 533.661 65.3195 533.661 79.0495V117.999H520.871V82.2195C520.871 72.3695 517.231 66.8495 508.441 66.8495C499.651 66.8495 493.541 73.4194 493.541 84.2094V117.999H480.641Z" fill="#E2E6E5"/>
<path d="M541.658 101.69C541.658 92.0699 547.528 85.7399 557.848 84.3299L581.658 80.8099V76.4699C581.658 69.7799 577.078 66.2599 569.458 66.2599C561.838 66.2599 556.908 69.6599 556.318 75.7599H543.998C545.058 63.3299 554.908 56.1699 569.688 56.1699C585.288 56.1699 594.088 64.3799 594.088 76.9299V117.99H582.238L581.768 108.61C578.018 115.41 570.628 119.52 561.938 119.52C549.498 119.52 541.648 112.01 541.648 101.69H541.658ZM581.668 95.8199V90.3099L562.308 93.0099C556.798 93.8299 554.218 96.4099 554.218 101.1C554.218 106.14 558.088 109.31 564.898 109.31C573.928 109.31 581.678 103.68 581.678 95.8199H581.668Z" fill="#E2E6E5"/>
<path d="M652.864 117.999L623.414 34.709H637.964L660.604 102.629L683.014 34.709H697.094L667.764 117.999H652.864Z" fill="#E2E6E5"/>
<path d="M694.102 88.6697V86.9097C694.102 68.6097 705.482 56.1797 724.012 56.1797C743.842 56.1797 753.462 70.0197 752.522 90.6697H707.352C707.942 102.75 713.802 109.21 724.012 109.21C732.462 109.21 737.502 105.22 739.262 99.1197H752.162C749.232 111.79 739.142 119.53 724.012 119.53C705.242 119.53 694.102 106.98 694.102 88.6797V88.6697ZM739.262 81.3896C738.322 72.0096 733.392 66.3697 723.892 66.3697C714.392 66.3697 708.992 71.5296 707.582 81.3896H739.252H739.262Z" fill="#E2E6E5"/>
<path d="M761.299 118V57.5897H773.729L774.199 67.2097C777.369 61.2297 783.699 56.1797 793.439 56.1797C808.099 56.1797 814.319 65.3297 814.319 79.0597V118.01H801.529V82.2297C801.529 72.3797 797.889 66.8597 789.089 66.8597C780.289 66.8597 774.189 73.4297 774.189 84.2197V118.01H761.289L761.299 118Z" fill="#E2E6E5"/>
<path d="M831.144 101.689V67.3194H819.414V57.5794H831.144V38.6895H844.044V57.5794H860.464V67.3194H844.044V100.279C844.044 106.259 846.274 108.959 853.424 108.959C856.004 108.959 859.054 108.369 860.814 107.789V118.109C858.114 118.929 854.014 119.519 850.964 119.519C837.704 119.519 831.134 113.419 831.134 101.689H831.144Z" fill="#E2E6E5"/>
<path d="M867.377 96.4101V57.5801H880.397V93.9501C880.397 103.22 883.797 108.73 892.477 108.73C901.157 108.73 906.667 101.93 906.667 91.1301V57.5801H919.687V117.99H907.137L906.897 108.84C903.377 114.71 896.927 119.52 888.247 119.52C874.167 119.52 867.367 110.6 867.367 96.4101H867.377Z" fill="#E2E6E5"/>
<path d="M931.156 118V57.5899H943.586L943.936 69.3199C947.226 61.5799 953.556 56.4199 962.236 56.4199C963.176 56.4199 964.466 56.5399 965.526 56.7699V69.3199C964.356 69.1999 962.946 69.0899 961.536 69.0899C950.626 69.0899 944.056 75.3099 944.056 87.2699V118.01H931.156V118Z" fill="#E2E6E5"/>
<path d="M968.984 88.6697V86.9097C968.984 68.6097 980.364 56.1797 998.894 56.1797C1018.72 56.1797 1028.34 70.0197 1027.4 90.6697H982.244C982.834 102.75 988.694 109.21 998.904 109.21C1007.35 109.21 1012.39 105.22 1014.15 99.1197H1027.05C1024.12 111.79 1014.03 119.53 998.904 119.53C980.134 119.53 968.994 106.98 968.994 88.6797L968.984 88.6697ZM1014.15 81.3896C1013.21 72.0096 1008.28 66.3697 998.784 66.3697C989.284 66.3697 983.884 71.5296 982.474 81.3896H1014.14H1014.15Z" fill="#E2E6E5"/>
<path d="M1033.13 99.2299H1045.56C1046.62 106.39 1051.78 109.79 1059.75 109.79C1067.02 109.79 1071.95 106.86 1071.95 101.46C1071.95 96.6499 1068.55 94.2999 1057.05 92.1899C1042.39 89.7299 1035.23 85.0299 1035.23 74.2399C1035.23 63.4499 1044.97 56.1699 1058.81 56.1699C1073.36 56.1699 1082.39 63.0899 1083.56 75.0599H1071.24C1070.3 68.9599 1065.61 65.6799 1058.69 65.6799C1051.77 65.6799 1047.66 68.6099 1047.66 73.5399C1047.66 78.4699 1051.06 80.4599 1062.09 82.2199C1077.34 84.6799 1084.73 89.7299 1084.73 100.29C1084.73 111.79 1074.76 119.53 1059.63 119.53C1044.5 119.53 1034.29 112.14 1033.12 99.2399L1033.13 99.2299Z" fill="#E2E6E5"/>
<path d="M184.69 135.54L101.78 88.25C96.3 84.53 89.09 84.59 83.67 88.38L31.94 124.56V31.94H157.87V0H15.97C7.15 0 0 7.15 0 15.97V155.22C0 161.17 3.31 166.63 8.59 169.38C13.87 172.13 20.24 171.72 25.12 168.3L92.96 120.86L184.69 172.19V135.54Z" fill="#85EBF9"/>
</svg>
