<svg width="1025" height="146" viewBox="0 0 1025 146" fill="none" xmlns="http://www.w3.org/2000/svg">
<path d="M0 27L63.5 0.5L177.5 47.1218L309.5 0L501.5 67.6285L584.5 38.5L720 86L789.5 62.5L1025 146H888.5H724L420.5 146.5H0V27Z" fill="#D9D9D9"/>
<path d="M0 27L63.5 0.5L177.5 47.1218L309.5 0L501.5 67.6285L584.5 38.5L720 86L888.5 146H724L420.5 146.5H0V27Z" fill="#00313C"/>
<path d="M0 27L63.5 0.5L177.5 47.1218L309.5 0L501.5 67.6285L724 146L420.5 146.5H0V27Z" fill="#73D8E0"/>
<path d="M63.5 0.5L0 27V146.5H420.5L177.5 47.1218L63.5 0.5Z" fill="#101820"/>
</svg>
